<svg xmlns="http://www.w3.org/2000/svg" viewBox="0 0 168.02 63.37">
  <defs>
    <linearGradient id="dari-text" x1="0" y1="0" x2="1" y2="0">
      <stop offset="0" stop-color="#225238"/>
      <stop offset="1" stop-color="#04964a"/>
    </linearGradient>
  </defs>
  <g transform="translate(8, 8)">
    <path d="M8,20 C14,10 24,4 32,2 C26,6 16,14 10,24 C6,30 2,30 8,20 Z" fill="#225238" opacity="0.9"/>
    <path d="M32,2 C38,0 44,0 48,4 C42,6 36,8 32,2 Z" fill="#04964a" opacity="0.9"/>
    <path d="M4,28 C10,18 20,8 30,6 C22,12 12,20 6,30 C2,34 0,34 4,28 Z" fill="#225238" opacity="0.6"/>
  </g>
  <text x="95" y="44" font-family="'Segoe UI', Arial, sans-serif" font-weight="900" font-size="32" fill="url(#dari-text)" text-anchor="middle" letter-spacing="4">DARI</text>
</svg>
